<svg width="40" height="40" viewBox="0 0 40 40" fill="none" xmlns="http://www.w3.org/2000/svg">
<path fill-rule="evenodd" clip-rule="evenodd" d="M7.81909 0.0121798C5.56139 0.217523 3.83552 0.92806 2.53145 2.18907C1.96819 2.73381 1.6641 3.11354 1.27728 3.75528C0.698966 4.71469 0.300949 5.92354 0.112552 7.29254C0.0288425 7.90053 0.0221791 8.67547 0.0065329 19.5492C-0.0122228 32.6016 -0.0125684 32.5868 0.321185 33.9383C0.488407 34.6152 0.654643 35.0644 0.969492 35.69C1.43059 36.6062 1.99662 37.3344 2.7353 37.9619C4.08339 39.107 5.59654 39.7069 7.6957 39.9285C8.59884 40.0238 31.4218 40.0238 32.325 39.9285C33.6785 39.7856 34.6722 39.5123 35.7059 38.9987C38.0875 37.8153 39.5038 35.7542 39.9117 32.8781C39.9946 32.2931 40 31.5109 40 20.0235C40 8.43343 39.9953 7.75644 39.9094 7.1178C39.578 4.65369 38.5605 2.86566 36.7422 1.55238C35.7458 0.832652 34.5027 0.359011 32.9172 0.094856C32.4368 0.0148257 31.5099 0.0079859 20.2078 0.00134584C13.5026 -0.00254834 7.92768 0.00229456 7.81909 0.0121798ZM24.0943 5.7122C23.2308 4.80611 22.1764 4.24729 20.951 4.04625C20.4672 3.96691 19.6452 3.95858 19.1713 4.02822C17.3526 4.29547 15.7974 5.41799 14.9521 7.07342C14.4866 7.98515 14.2879 8.80782 14.2283 10.0698L14.1956 10.7623L12.6362 10.7626C11.7784 10.7628 10.9464 10.7845 10.7872 10.8109C10.1918 10.9095 9.72877 11.2663 9.46994 11.8257C9.31758 12.1551 9.27992 12.4148 8.168 20.7973C7.74619 23.9772 7.57186 25.2854 7.14995 28.4359C6.95692 29.8775 6.79823 31.2367 6.79735 31.4564C6.79434 32.2009 7.13663 32.7674 7.78425 33.0899L8.11316 33.2537H20.0093H31.9054L32.1828 33.1222C32.5597 32.9434 32.8213 32.6918 33.0184 32.3185C33.301 31.7832 33.2978 31.734 32.6724 27.038C31.3358 17.0007 30.7235 12.467 30.6665 12.1852C30.6112 11.912 30.3369 11.4581 30.093 11.2362C29.9606 11.1158 29.7257 10.9663 29.5709 10.9041C29.3 10.795 29.224 10.7902 27.5373 10.775L25.7851 10.7593L25.7713 10.0743C25.7352 8.27028 25.1962 6.86852 24.0943 5.7122Z" fill="url(#paint0_linear_61_12)"/>
<path fill-rule="evenodd" clip-rule="evenodd" d="M20.951 4.04625C22.1764 4.24729 23.2308 4.80611 24.0943 5.7122C25.1962 6.86852 25.7352 8.27028 25.7713 10.0743L25.7851 10.7593L27.5373 10.775C29.224 10.7902 29.3 10.795 29.5709 10.9041C29.7257 10.9663 29.9606 11.1158 30.093 11.2362C30.3369 11.4581 30.6112 11.912 30.6665 12.1852C30.7235 12.467 31.3358 17.0007 32.6724 27.038C33.2978 31.734 33.301 31.7832 33.0184 32.3185C32.8213 32.6918 32.5597 32.9434 32.1828 33.1222L31.9054 33.2537H20.0093H8.11316L7.78425 33.0899C7.13663 32.7674 6.79434 32.2009 6.79735 31.4564C6.79823 31.2367 6.95692 29.8775 7.14995 28.4359C7.57186 25.2854 7.74619 23.9772 8.168 20.7973C9.27992 12.4148 9.31758 12.1551 9.46994 11.8257C9.72877 11.2663 10.1918 10.9095 10.7872 10.8109C10.9464 10.7845 11.7784 10.7628 12.6362 10.7626L14.1956 10.7623L14.2283 10.0698C14.2879 8.80782 14.4866 7.98515 14.9521 7.07342C15.7974 5.41799 17.3526 4.29547 19.1713 4.02822C19.6452 3.95858 20.4672 3.96691 20.951 4.04625ZM15.9971 8.42989C16.5188 6.83058 17.8589 5.72843 19.5352 5.51999C20.2004 5.43731 21.1324 5.57596 21.7411 5.84825C22.6833 6.26977 23.5445 7.18021 23.9381 8.17097C24.1705 8.75585 24.2356 9.11366 24.2646 9.96354L24.2927 10.7873H20.0168H15.7409V10.2292C15.7409 9.49969 15.8128 8.99489 15.9971 8.42989ZM16.5763 14.5395C17.3263 13.7541 18.2279 13.2852 19.3235 13.1107C19.7576 13.0416 20.6392 13.0893 21.1156 13.2076C22.7699 13.6184 24.166 15.0023 24.6353 16.6965C24.7435 17.0871 24.7536 17.1029 24.8931 17.1029C25.2457 17.1029 25.7069 17.4739 25.8068 17.8379C25.8739 18.0821 25.8741 19.518 25.8071 19.7619C25.738 20.0133 25.4384 20.3225 25.1916 20.397C25.0243 20.4475 24.9787 20.4917 24.903 20.6768C24.6633 21.2629 24.0597 21.9684 23.4976 22.3194L23.1884 22.5124L24.5115 23.0419C25.9582 23.6209 26.367 23.8476 26.8876 24.3592C27.4453 24.9074 27.8342 25.548 28.0342 26.2477C28.117 26.5373 28.1468 26.8273 28.1769 27.6371C28.2329 29.1436 28.1722 29.4078 27.7188 29.6298C27.5101 29.732 27.4482 29.734 24.3785 29.734H21.2509L21.5314 29.47C21.6902 29.3204 21.8115 29.1634 21.8111 29.108C21.8107 29.0541 21.7578 28.8416 21.6936 28.6356C21.0076 26.4366 20.6764 25.2992 20.6976 25.216C20.7117 25.1609 20.8568 24.88 21.0199 24.5917C21.3174 24.0661 21.3759 23.8535 21.2517 23.7492C21.2075 23.7121 20.7765 23.6891 19.9702 23.6807C18.8803 23.6693 18.7466 23.6768 18.671 23.7533C18.5502 23.8754 18.6309 24.108 18.9964 24.6915C19.1599 24.9524 19.2938 25.1892 19.2941 25.2179C19.2947 25.2753 18.493 27.9857 18.2766 28.6577C18.1153 29.159 18.1339 29.226 18.522 29.5386L18.7646 29.734L15.6363 29.7329C12.708 29.7318 12.4953 29.7259 12.3086 29.6401C12.0877 29.5386 11.8577 29.2918 11.8118 29.1069C11.7955 29.0408 11.7927 28.4528 11.8058 27.8002C11.832 26.4971 11.8628 26.3128 12.1659 25.6481C12.3782 25.1825 12.6863 24.7499 13.0837 24.3592C13.6725 23.7806 13.9391 23.6456 16.4194 22.6709L17.0238 22.4334L16.6574 22.0395C15.6996 21.0096 15.213 19.8394 15.1614 18.4421C15.1016 16.8203 15.5319 15.6332 16.5763 14.5395Z" fill="#E5F4FF"/>
<path fill-rule="evenodd" clip-rule="evenodd" d="M20.7845 14.1336C22.0706 14.4046 23.2063 15.4782 23.6351 16.8283C24.0174 18.0321 23.9232 19.2538 23.3613 20.3817C23.2167 20.6719 23.1446 20.8053 23.175 20.8364C23.2028 20.8648 23.3166 20.8073 23.5394 20.7056C23.6615 20.6498 23.8559 20.5453 23.9712 20.4733C24.2172 20.3197 24.2351 20.3696 24.05 20.6931C23.7056 21.2951 23.3181 21.5966 22.5655 21.8484C22.3003 21.9371 22.0225 22.0528 21.9482 22.1055C21.7214 22.2661 21.1145 22.5284 20.7722 22.6137C20.3042 22.7304 19.4633 22.7217 19.023 22.5956C17.631 22.197 16.5801 21.0166 16.1552 19.3745C16.0182 18.845 16.0265 17.6657 16.1709 17.1278C16.5245 15.8117 17.3833 14.8027 18.5586 14.3225C19.205 14.0584 20.0768 13.9843 20.7845 14.1336ZM18.3706 20.6019C18.2316 20.3932 18.2295 20.2984 18.3605 20.1301C18.5004 19.9501 18.6527 19.9642 18.9074 20.1809C19.3664 20.5712 19.874 20.7079 20.3789 20.577C20.6998 20.4938 20.8873 20.3865 21.1578 20.1307C21.2958 20.0002 21.3367 19.9858 21.4524 20.0269C21.6263 20.0888 21.7383 20.2898 21.6953 20.4629C21.5786 20.9334 20.7907 21.3446 20.0032 21.3459C19.3659 21.347 18.6495 21.0205 18.3706 20.6019Z" fill="#E5F4FF"/>
<path fill-rule="evenodd" clip-rule="evenodd" d="M18.3706 20.6019C18.2316 20.3932 18.2295 20.2984 18.3605 20.1301C18.5004 19.9501 18.6527 19.9642 18.9074 20.1809C19.3664 20.5712 19.874 20.7079 20.3789 20.577C20.6998 20.4938 20.8873 20.3865 21.1578 20.1307C21.2958 20.0002 21.3367 19.9858 21.4524 20.0269C21.6263 20.0888 21.7383 20.2898 21.6953 20.4629C21.5786 20.9334 20.7907 21.3446 20.0032 21.3459C19.3659 21.347 18.6495 21.0205 18.3706 20.6019Z" fill="#33A6FE"/>
<path d="M19.5352 5.51999C17.8589 5.72843 16.5188 6.83058 15.9971 8.42989C15.8128 8.99489 15.7409 9.49969 15.7409 10.2292V10.7873H20.0168H24.2927L24.2646 9.96354C24.2356 9.11366 24.1705 8.75585 23.9381 8.17097C23.5445 7.18021 22.6833 6.26977 21.7411 5.84825C21.1324 5.57596 20.2004 5.43731 19.5352 5.51999Z" fill="#54B4FE"/>
<path fill-rule="evenodd" clip-rule="evenodd" d="M19.3235 13.1107C18.2279 13.2852 17.3263 13.7541 16.5763 14.5395C15.5319 15.6332 15.1016 16.8203 15.1614 18.4421C15.213 19.8394 15.6996 21.0096 16.6574 22.0395L17.0238 22.4334L16.4194 22.6709C13.9391 23.6456 13.6725 23.7806 13.0837 24.3592C12.6863 24.7499 12.3782 25.1825 12.1659 25.6481C11.8628 26.3128 11.832 26.4971 11.8058 27.8002C11.7927 28.4528 11.7955 29.0408 11.8118 29.1069C11.8577 29.2918 12.0877 29.5386 12.3086 29.6401C12.4953 29.7259 12.708 29.7318 15.6363 29.7329L18.7646 29.734L18.522 29.5386C18.1339 29.226 18.1153 29.159 18.2766 28.6577C18.493 27.9857 19.2947 25.2753 19.2941 25.2179C19.2938 25.1892 19.1599 24.9524 18.9964 24.6915C18.6309 24.108 18.5502 23.8754 18.671 23.7533C18.7466 23.6768 18.8803 23.6693 19.9702 23.6807C20.7765 23.6891 21.2075 23.7121 21.2517 23.7492C21.3759 23.8535 21.3174 24.0661 21.0199 24.5917C20.8568 24.88 20.7117 25.1609 20.6976 25.216C20.6764 25.2992 21.0076 26.4366 21.6936 28.6356C21.7578 28.8416 21.8107 29.0541 21.8111 29.108C21.8115 29.1634 21.6902 29.3204 21.5314 29.47L21.2509 29.734H24.3785C27.4482 29.734 27.5101 29.732 27.7188 29.6298C28.1722 29.4078 28.2329 29.1436 28.1769 27.6371C28.1468 26.8273 28.117 26.5373 28.0342 26.2477C27.8342 25.548 27.4453 24.9074 26.8876 24.3592C26.367 23.8476 25.9582 23.6209 24.5115 23.0419L23.1884 22.5124L23.4976 22.3194C24.0597 21.9684 24.6633 21.2629 24.903 20.6768C24.9787 20.4917 25.0243 20.4475 25.1916 20.397C25.4384 20.3225 25.738 20.0133 25.8071 19.7619C25.8741 19.518 25.8739 18.0821 25.8068 17.8379C25.7069 17.4739 25.2457 17.1029 24.8931 17.1029C24.7536 17.1029 24.7435 17.0871 24.6353 16.6965C24.166 15.0023 22.7699 13.6184 21.1156 13.2076C20.6392 13.0893 19.7576 13.0416 19.3235 13.1107ZM23.6351 16.8283C23.2063 15.4782 22.0706 14.4046 20.7845 14.1336C20.0768 13.9843 19.205 14.0584 18.5586 14.3225C17.3833 14.8027 16.5245 15.8117 16.1709 17.1278C16.0265 17.6657 16.0182 18.845 16.1552 19.3745C16.5801 21.0166 17.631 22.197 19.023 22.5956C19.4633 22.7217 20.3042 22.7304 20.7722 22.6137C21.1145 22.5284 21.7214 22.2661 21.9482 22.1055C22.0225 22.0528 22.3003 21.9371 22.5655 21.8484C23.3181 21.5966 23.7056 21.2951 24.05 20.6931C24.2351 20.3696 24.2172 20.3197 23.9712 20.4733C23.8559 20.5453 23.6615 20.6498 23.5394 20.7056C23.3166 20.8073 23.2028 20.8648 23.175 20.8364C23.1446 20.8053 23.2167 20.6719 23.3613 20.3817C23.9232 19.2538 24.0174 18.0321 23.6351 16.8283Z" fill="#33A6FE"/>
<defs>
<linearGradient id="paint0_linear_61_12" x1="20" y1="0" x2="20" y2="40" gradientUnits="userSpaceOnUse">
<stop stop-color="#66BCFE"/>
<stop offset="1" stop-color="#0091FE"/>
</linearGradient>
</defs>
</svg>
