<svg width="24" height="24" viewBox="0 0 24 24" fill="none" xmlns="http://www.w3.org/2000/svg">
<path fill-rule="evenodd" clip-rule="evenodd" d="M1.52985 8.46362C0.69944 8.71676 0.0112247 8.9297 0.00042103 8.93694C-0.0170259 8.94857 0.513362 10.2699 0.55 10.3059C0.558187 10.314 0.72192 10.2631 0.913837 10.1928C1.10582 10.1226 1.29277 10.0651 1.32928 10.0651C1.37209 10.0651 1.39564 11.1098 1.39564 13.0063V15.9476H2.26799H3.14034V11.972C3.14034 9.7855 3.11765 7.99806 3.09001 8C3.06236 8.00188 2.36026 8.21054 1.52985 8.46362ZM7.87114 8.15702C6.37936 8.42438 5.20646 9.20385 4.63192 10.3098C4.22413 11.0947 4.11334 11.643 4.11334 12.877C4.11334 13.8144 4.12857 13.95 4.27566 14.3234C4.49523 14.8809 5.0232 15.4286 5.59418 15.6911C6.7889 16.2404 8.44891 16.0376 9.30428 15.238C10.2705 14.3347 10.3724 12.5377 9.51102 11.5949C9.201 11.2557 8.61016 10.9484 8.0536 10.8369C7.59796 10.7457 6.84895 10.7906 6.43472 10.9338C6.27213 10.9901 6.12524 11.0228 6.10833 11.0065C6.04472 10.9453 6.38057 10.5136 6.7336 10.2028C7.14267 9.84265 7.63064 9.63495 8.30732 9.53294C8.54721 9.49681 8.77825 9.45835 8.82066 9.44742C8.89226 9.42913 9.17967 8.40331 9.17967 8.16626C9.17967 8.07977 9.10525 8.06219 8.76027 8.06697C8.52963 8.0702 8.12949 8.11073 7.87114 8.15702ZM12.8223 8.33433C12.0364 8.6112 11.4997 9.12459 11.3181 9.77322C11.16 10.3378 11.4251 11.0716 11.9533 11.5313C12.1981 11.7444 12.2089 11.7675 12.0916 11.8277C11.8305 11.9617 11.245 12.6042 11.0881 12.9288C10.8522 13.4169 10.8556 14.1733 11.0959 14.6379C11.5308 15.4785 12.5591 15.9451 13.9776 15.9455C15.6721 15.946 16.8656 15.2041 17.0631 14.0274C17.1745 13.3634 16.7504 12.5108 16.0707 12.0328L15.7086 11.7781L16.0613 11.4094C16.4906 10.9607 16.6621 10.5295 16.6088 10.0328C16.5329 9.32337 15.979 8.658 15.2289 8.375C14.9312 8.26265 14.6773 8.22722 14.0447 8.20964C13.3384 8.19005 13.1882 8.20537 12.8223 8.33433ZM19.9663 8.25747C18.9519 8.50053 18.2389 9.28749 18.2408 10.162C18.2418 10.655 18.4161 11.0356 18.8245 11.4365L19.135 11.7413L18.9385 11.8858C18.6044 12.1311 18.2697 12.5045 18.0653 12.86C17.8896 13.1655 17.8697 13.2597 17.8701 13.7821C17.8705 14.2608 17.8973 14.4122 18.0215 14.6368C18.3514 15.2334 18.9184 15.6156 19.7877 15.8274C20.2574 15.9418 20.4753 15.9585 21.1224 15.9297C22.2623 15.8791 22.987 15.5999 23.5345 15.0008C24.0349 14.4531 24.1441 13.6099 23.8025 12.9302C23.6483 12.6233 23.1953 12.1348 22.8489 11.9016L22.6612 11.7753L22.9529 11.482C23.3637 11.069 23.54 10.6771 23.5392 10.1789C23.538 9.41749 23.0899 8.79795 22.2709 8.42516C21.8608 8.23853 21.7703 8.22295 21.0235 8.21048C20.5806 8.20311 20.1049 8.22425 19.9663 8.25747ZM14.5606 9.65221C14.9768 9.85726 15.0907 10.3885 14.7824 10.6855C14.5907 10.8701 14.1117 11.0958 13.9069 11.0979C13.6639 11.1005 13.0738 10.7737 12.9691 10.5787C12.7276 10.1288 12.9455 9.72513 13.5101 9.57671C13.8707 9.48194 14.2741 9.51096 14.5606 9.65221ZM21.509 9.65279C21.7356 9.79003 21.8891 10.0553 21.8891 10.3099C21.8891 10.4922 21.8397 10.5791 21.6428 10.7431C21.5074 10.8558 21.2759 10.9865 21.1284 11.0334C20.8945 11.1077 20.8211 11.1042 20.5534 11.0057C19.731 10.7032 19.5424 10.0878 20.1537 9.70198C20.5073 9.47877 21.1812 9.45434 21.509 9.65279ZM7.78123 12.3203C8.73631 12.9037 8.47904 14.2552 7.36142 14.5258C6.79433 14.6631 6.17416 14.3879 5.90836 13.881C5.60975 13.3116 5.79442 12.66 6.35057 12.3203C6.60134 12.167 6.72931 12.1337 7.0659 12.1337C7.40249 12.1337 7.53046 12.167 7.78123 12.3203ZM14.2571 12.6554C14.9661 12.9482 15.2582 13.3051 15.1995 13.8068C15.1412 14.3055 14.6735 14.5894 13.9105 14.5894C13.1457 14.5894 12.602 14.2484 12.602 13.7689C12.602 13.3601 12.9066 12.9666 13.4109 12.7238C13.6421 12.6126 13.8541 12.5215 13.8821 12.5215C13.91 12.5215 14.0788 12.5818 14.2571 12.6554ZM21.3986 12.752C21.7579 12.9259 22.1275 13.3045 22.1381 13.5096C22.1777 14.273 21.8323 14.5551 20.8557 14.5568C20.4181 14.5576 20.2228 14.5277 20.0169 14.4285C19.6724 14.2625 19.4864 13.9232 19.5528 13.5819C19.6519 13.0732 20.5098 12.4537 20.9564 12.5684C21.0302 12.5874 21.2292 12.67 21.3986 12.752Z" fill="#FE5B00"/>
</svg>
