<svg width="24" height="24" viewBox="0 0 24 24" fill="none" xmlns="http://www.w3.org/2000/svg">
<path d="M11.4945 3.91962C11.4945 3.81787 11.2785 3.73781 10.0913 3.39968C9.31958 3.17987 8.65012 3 8.60357 3C8.55219 3 8.38713 3.36188 8.18289 3.92234C7.61812 5.47219 6.98726 6.6676 6.06832 7.92949C5.81585 8.27616 5.50555 8.64826 5.37878 8.75635C5.15533 8.94691 5.15208 8.95584 5.27097 9.04962C5.46156 9.19998 6.1563 9.62244 6.70193 9.91979L7.19675 10.1895L7.82823 9.49591C8.17557 9.11448 8.53837 8.69829 8.63454 8.57111C8.76682 8.39609 8.97205 8.26625 9.47851 8.03706C9.84657 7.87052 10.157 7.74385 10.1684 7.7557C10.2719 7.86276 8.93764 9.99811 8.26036 10.8094C8.07746 11.0284 7.92785 11.2353 7.92785 11.2691C7.92785 11.3452 9.04889 12.3852 9.13093 12.3852C9.16365 12.3852 9.58914 11.9742 10.0765 11.472L10.9626 10.5589L11.4945 10.5497L12.0263 10.5405L12.0464 11.0259C12.0575 11.2929 12.048 11.7225 12.0255 11.9806L11.9843 12.4499H9.92484H7.86528V13.2266V14.0033H9.96145H12.0576V15.8081C12.0576 17.8784 12.1058 17.7362 11.4424 17.6244C10.911 17.535 10.5609 17.322 10.3817 16.9791C10.2366 16.7015 10.2317 16.6523 10.2645 15.7983L10.2988 14.9071L8.81612 14.9245L7.33341 14.9418L7.25276 15.3302C7.13781 15.8837 7.195 17.1494 7.35944 17.6927C7.50661 18.1788 7.95594 18.904 8.25729 19.1418C8.90798 19.6551 9.61154 19.7966 11.2442 19.7423C13.4256 19.6697 14.8463 19.3312 16.4219 18.5085C16.7231 18.3512 17.0956 18.1342 17.2497 18.0262C17.4037 17.9182 17.5392 17.8396 17.5507 17.8514C17.5621 17.8633 17.6378 18.1501 17.7189 18.4889C17.8718 19.1279 17.9675 19.3755 18.0612 19.3755C18.176 19.3755 20.2833 18.4127 20.3031 18.3511C20.3257 18.2811 18.8446 14.4607 18.7616 14.3748C18.7124 14.3239 17.5069 14.6742 17.0555 14.8705L16.8286 14.9692L16.9917 15.656L17.1548 16.3428L16.9996 16.4684C16.7729 16.6519 15.7555 17.1749 15.6252 17.1749C15.4719 17.1749 15.4652 17.0921 15.4858 15.4444L15.5037 14.0051L17.5507 13.988L19.5976 13.971V13.2266V12.4823L17.5483 12.4652L15.4991 12.4482V11.4781V10.5081H17.564H19.6289V9.7638V9.01946H16.0101C14.0198 9.01946 12.3736 9.00108 12.3519 8.97869C12.3302 8.95623 12.4363 8.77415 12.5877 8.57415C12.8702 8.20081 13.3091 7.48094 13.3091 7.39078C13.3091 7.34366 13.0391 7.25252 12.3782 7.07647C12.2275 7.03641 12.129 6.97984 12.1592 6.95084C12.2489 6.86456 14.6082 6.11685 15.2175 5.98158C17.9364 5.37782 19.8233 5.86183 20.3862 7.30754L20.5362 7.69259V12.9677C20.5362 18.8426 20.5563 18.5518 20.1051 19.2082C19.6731 19.8368 19.0441 20.152 18.1271 20.1995C17.6186 20.2258 17.4068 20.201 16.6615 20.0275C16.0006 19.8737 15.779 19.8437 15.7434 19.9033C15.6796 20.0102 15.374 21.282 15.374 21.441C15.374 21.5111 15.3972 21.5834 15.4256 21.6016C15.454 21.6198 15.9116 21.7146 16.4424 21.8125C19.4024 22.3581 21.891 21.6933 22.9548 20.0728C23.7007 18.9368 23.9365 17.5395 23.9916 13.9286C24.0365 10.996 23.9026 8.95448 23.5687 7.48062C23.4274 6.85699 23.3367 6.65414 22.986 6.1786C22.354 5.32157 21.1681 4.68467 19.5938 4.35671C18.7676 4.1846 17.0891 4.1213 16.0935 4.22473C15.2667 4.31056 12.6779 4.82895 11.5582 5.13283C11.1656 5.23937 10.8361 5.31795 10.826 5.30746C10.8159 5.29697 10.8918 5.15102 10.9948 4.98299C11.2705 4.53347 11.4945 4.05664 11.4945 3.91962Z" fill="#FE5B00"/>
<path d="M6.21055 5.90183C6.52585 4.91995 5.98054 3.83036 4.98695 3.4569C4.64236 3.32738 3.96608 3.27877 3.62256 3.35884C2.37412 3.64965 1.6506 5.04649 2.2038 6.09789C2.41836 6.50566 2.75343 6.82009 3.23305 7.06372C3.53947 7.21938 3.65072 7.23951 4.2048 7.23951C4.76344 7.23951 4.86875 7.2201 5.18737 7.05828C5.63764 6.82954 6.06939 6.34158 6.21055 5.90183Z" fill="#FE5B00"/>
<path d="M5.26408 10.5982C4.57441 9.89759 3.14213 8.63525 2.64162 8.28677C2.50458 8.19137 2.37787 8.11402 2.36004 8.1148C2.31555 8.11693 1.0255 10.2516 1.05359 10.2765C1.06604 10.2875 1.67031 10.6788 2.39639 11.1461C3.92059 12.1269 4.22789 12.3844 4.46003 12.8753C4.60426 13.1802 4.62359 13.2869 4.59462 13.6173C4.51234 14.5563 3.92554 15.3802 1.70503 17.6742L0 19.4357L0.788411 19.9477C1.22197 20.2293 1.93962 20.6964 2.38307 20.9856C2.82652 21.2748 3.20946 21.5115 3.23392 21.5115C3.25845 21.5115 3.33016 21.3876 3.39336 21.2364C3.45649 21.0851 3.81666 20.2914 4.19372 19.4726C5.13281 17.4334 5.44973 16.6905 5.76779 15.7833C6.27919 14.3243 6.47379 13.2548 6.36811 12.483C6.26962 11.7634 6.06157 11.4083 5.26408 10.5982Z" fill="#FE5B00"/>
</svg>
