<svg width="24" height="24" viewBox="0 0 24 24" fill="none" xmlns="http://www.w3.org/2000/svg">
<path d="M15.498 2.22918C15.2182 1.67251 14.751 1.25107 14.2591 1.11165C13.6286 0.933011 13.4253 0.955001 12.7163 1.27805C12.184 1.52062 11.8266 2.05552 11.7131 2.77927C11.6249 3.34194 11.9889 4.2212 12.4729 4.61453C12.9209 4.97861 14.1118 5.07972 14.644 4.79895C15.4913 4.35201 15.9186 3.06639 15.498 2.22918Z" fill="#C60A2C"/>
<path d="M22 8.01755V6.88404V5.75053H13.1732H4.34633L4.30556 12.3532C4.27067 18.004 4.23822 19.0703 4.08067 19.7493C3.88667 20.5858 3.55278 21.3824 3.20722 21.8333C3.04267 22.048 3 22.2988 3 23.0518C3 23.9149 3.01933 24 3.21567 24C3.33433 24 3.46267 23.9482 3.501 23.8849C3.53933 23.8217 3.73833 23.6984 3.94322 23.6111C4.44811 23.3958 5.787 22.0217 6.10433 21.3929C6.48867 20.6314 6.77522 19.743 6.96367 18.7292C7.09122 18.043 7.14578 16.6296 7.188 12.92L7.24378 8.01755H14.6219H22Z" fill="#C60A2C"/>
<path fill-rule="evenodd" clip-rule="evenodd" d="M15.2222 9.71781V10.6246H18.5H21.7778V11.6448V12.6649H18.5H15.2222V14.0251V15.3853H18.062H20.9018L20.8676 18.5308C20.8293 22.0429 20.8154 22.1127 20.0367 22.7189L19.6287 23.0365L13.8699 23.0687L8.11111 23.101V19.2457V15.3904L10.1389 15.3596L12.1667 15.3287L12.1961 12.0698L12.2257 8.811H13.7239H15.2222V9.71781ZM11 21.3929V19.4093V17.4257H14.3889H17.7778V19.0599C17.7778 19.9588 17.7467 20.7769 17.7088 20.8778C17.5353 21.3388 17.1462 21.3929 14.0056 21.3929H11Z" fill="#C60A2C"/>
</svg>
